<svg width="16" height="16" viewBox="0 0 16 16" fill="none" xmlns="http://www.w3.org/2000/svg">
<rect width="16" height="16" fill="#2D3748"/>
<rect x="13" y="1" width="1" height="3" fill="#FCB231"/>
<rect x="12" y="2" width="3" height="1" fill="#FCB231"/>
<path d="M1.696 6.2H3.892C4.452 6.2 4.964 6.272 5.428 6.416C5.892 6.56 6.292 6.788 6.628 7.1C6.964 7.412 7.224 7.812 7.408 8.3C7.6 8.788 7.696 9.376 7.696 10.064C7.696 10.752 7.604 11.344 7.42 11.84C7.236 12.336 6.976 12.744 6.64 13.064C6.312 13.384 5.924 13.62 5.476 13.772C5.028 13.924 4.54 14 4.012 14H1.696V6.2ZM3.784 12.344C4.032 12.344 4.264 12.312 4.48 12.248C4.704 12.176 4.896 12.056 5.056 11.888C5.216 11.72 5.344 11.488 5.44 11.192C5.536 10.896 5.584 10.52 5.584 10.064C5.584 9.608 5.536 9.236 5.44 8.948C5.344 8.66 5.216 8.436 5.056 8.276C4.896 8.116 4.704 8.008 4.48 7.952C4.264 7.888 4.032 7.856 3.784 7.856H3.76V12.344H3.784ZM8.67531 10.16C8.67531 9.504 8.77131 8.92 8.96331 8.408C9.15531 7.896 9.41531 7.468 9.74331 7.124C10.0793 6.772 10.4713 6.508 10.9193 6.332C11.3673 6.148 11.8433 6.056 12.3473 6.056C12.8753 6.056 13.3313 6.16 13.7153 6.368C14.0993 6.568 14.4193 6.8 14.6753 7.064L13.5473 8.336C13.3873 8.176 13.2153 8.052 13.0313 7.964C12.8553 7.876 12.6273 7.832 12.3473 7.832C12.1313 7.832 11.9273 7.884 11.7353 7.988C11.5513 8.092 11.3873 8.24 11.2433 8.432C11.1073 8.624 10.9993 8.86 10.9193 9.14C10.8393 9.42 10.7993 9.736 10.7993 10.088C10.7993 10.824 10.9353 11.388 11.2073 11.78C11.4793 12.172 11.8953 12.368 12.4553 12.368C12.5513 12.368 12.6473 12.356 12.7433 12.332C12.8393 12.308 12.9193 12.272 12.9833 12.224V11.144H12.0113V9.464H14.8193V13.184C14.6833 13.304 14.5233 13.424 14.3393 13.544C14.1633 13.656 13.9673 13.756 13.7513 13.844C13.5353 13.932 13.3073 14.004 13.0673 14.06C12.8273 14.116 12.5833 14.144 12.3353 14.144C11.8313 14.144 11.3553 14.064 10.9073 13.904C10.4673 13.736 10.0793 13.488 9.74331 13.16C9.41531 12.824 9.15531 12.408 8.96331 11.912C8.77131 11.408 8.67531 10.824 8.67531 10.16Z" fill="white"/>
</svg>
